<svg id="Capa_1" data-name="Capa 1" xmlns="http://www.w3.org/2000/svg" viewBox="0 0 1190.4 844.8"><defs><style>.cls-1,.cls-2{fill:none;stroke-miterlimit:10;stroke-width:3px;}.cls-1{stroke:#76d069;}.cls-2{stroke:#384ecb;}</style></defs><polygon class="cls-1" points="567.27 437.32 415.01 438.1 551.88 504.78 414.43 439.26 508.81 558.75 413.25 440.22 446.42 588.81 411.92 440.49 377.41 588.81 410.58 440.22 315.02 558.75 409.4 439.26 271.95 504.78 408.82 438.1 256.56 437.32 408.82 436.54 271.96 369.86 409.4 435.38 315.02 315.89 410.58 434.42 377.41 285.83 411.92 434.15 446.42 285.83 413.25 434.42 508.81 315.89 414.43 435.38 551.88 369.86 415.01 436.54 567.27 437.32"/><line class="cls-2" x1="681.31" y1="437.32" x2="933.84" y2="437.32"/></svg>